<svg xmlns="http://www.w3.org/2000/svg" version="1.1" xmlns:xlink="http://www.w3.org/1999/xlink" xmlns:svgjs="http://svgjs.dev/svgjs" width="1440" height="560" preserveAspectRatio="none" viewBox="0 0 1440 560"><g mask="url(&quot;#SvgjsMask1000&quot;)" fill="none"><rect width="1440" height="560" x="0" y="0" fill="#0e2a47"></rect><path d="M1227.5 221.91a48.12 48.12 0 1 0 89.34 35.8z" fill="#037b0b"></path><path d="M502.76 439.76L536.66 439.76L536.66 473.66L502.76 473.66z" stroke="#e73635"></path><path d="M935 23.45a8.83 8.83 0 1 0-17.53 2.12z" stroke="#037b0b"></path><path d="M354.36 385.65a37 37 0 1 0-72.92 12.58z" stroke="#e73635"></path><path d="M308.72 456.69a21.07 21.07 0 1 0 29.11-30.48z" fill="#d3b714"></path><path d="M1004.2 386.69L1036.77 386.69L1036.77 419.26L1004.2 419.26z" stroke="#d3b714"></path><path d="M237.99 451.07a50.97 50.97 0 1 0-88.44 50.69z" fill="#037b0b"></path><path d="M581.18 306.32a27.42 27.42 0 1 0-35.53-41.77z" fill="#d3b714"></path><path d="M484.18 468.16a45.96 45.96 0 1 0-75.56-52.35z" stroke="#d3b714"></path><path d="M978.34 435.06 a39.13 39.13 0 1 0 78.26 0 a39.13 39.13 0 1 0 -78.26 0z" stroke="#e73635"></path><path d="M304.12 201.66L339.92 201.66L339.92 237.46L304.12 237.46z" stroke="#d3b714"></path><path d="M569.36 530.82L589.92 530.82L589.92 563.88L569.36 563.88z" stroke="#d3b714"></path><path d="M156.18 109.06a6.89 6.89 0 1 0 9.07 10.38z" stroke="#d3b714"></path><path d="M1154.99 449.94L1196.28 449.94L1196.28 452.92L1154.99 452.92z" fill="#e73635"></path><path d="M1189.3 501.63 a48.67 48.67 0 1 0 97.34 0 a48.67 48.67 0 1 0 -97.34 0z" stroke="#e73635"></path><path d="M53.77 464.92L92.68 464.92L92.68 503.83L53.77 503.83z" stroke="#e73635"></path><path d="M167.4 512.68L196.68 512.68L196.68 527.4L167.4 527.4z" stroke="#e73635"></path><path d="M850.43 359.46L883.21 359.46L883.21 382.76L850.43 382.76z" stroke="#037b0b"></path><path d="M699.54 371.21L716.91 371.21L716.91 377.15L699.54 377.15z" stroke="#037b0b"></path><path d="M511.15 78.28 a28.95 28.95 0 1 0 57.9 0 a28.95 28.95 0 1 0 -57.9 0z" fill="#037b0b"></path><path d="M534.37 231.52L581.5 231.52L581.5 255.9L534.37 255.9z" stroke="#037b0b"></path><path d="M82.36 8.89L133.72 8.89L133.72 44.99L82.36 44.99z" stroke="#037b0b"></path><path d="M451.88 479.7L493.36 479.7L493.36 521.18L451.88 521.18z" fill="#037b0b"></path><path d="M643.02 301.13a0.18 0.18 0 1 0 0.36-0.02z" fill="#037b0b"></path><path d="M713.86 424.17L734.59 424.17L734.59 457.81L713.86 457.81z" fill="#d3b714"></path><path d="M1012.92 478.82a34.26 34.26 0 1 0 66.72 15.58z" stroke="#d3b714"></path><path d="M504.61 201.23L512.74 201.23L512.74 226.96L504.61 226.96z" stroke="#e73635"></path><path d="M1367.75 165.52L1385.03 165.52L1385.03 182.8L1367.75 182.8z" stroke="#037b0b"></path><path d="M640.91 218.64L650.31 218.64L650.31 242.49L640.91 242.49z" stroke="#037b0b"></path><path d="M665.46 64.11a37.46 37.46 0 1 0 51.13-54.76z" stroke="#d3b714"></path><path d="M331.21 247.05a11.55 11.55 0 1 0 23.04 1.76z" stroke="#037b0b"></path><path d="M940.25 145.4 a2.09 2.09 0 1 0 4.18 0 a2.09 2.09 0 1 0 -4.18 0z" stroke="#e73635"></path><path d="M643.61 199.69L675.66 199.69L675.66 231.74L643.61 231.74z" stroke="#037b0b"></path></g><defs><mask id="SvgjsMask1000"><rect width="1440" height="560" fill="#ffffff"></rect></mask></defs></svg>