<svg id="visual" viewBox="0 0 900 600" width="900" height="600" xmlns="http://www.w3.org/2000/svg" xmlns:xlink="http://www.w3.org/1999/xlink" version="1.1"><rect x="0" y="0" width="900" height="600" fill="#002233"></rect><path d="M0 284L21.5 305.7C43 327.3 86 370.7 128.8 370.5C171.7 370.3 214.3 326.7 257.2 337.8C300 349 343 415 385.8 411.3C428.7 407.7 471.3 334.3 514.2 317.2C557 300 600 339 642.8 357.3C685.7 375.7 728.3 373.3 771.2 347.5C814 321.7 857 272.3 878.5 247.7L900 223L900 601L878.5 601C857 601 814 601 771.2 601C728.3 601 685.7 601 642.8 601C600 601 557 601 514.2 601C471.3 601 428.7 601 385.8 601C343 601 300 601 257.2 601C214.3 601 171.7 601 128.8 601C86 601 43 601 21.5 601L0 601Z" fill="#0066FF" stroke-linecap="round" stroke-linejoin="miter"></path></svg>